<?xml version="1.0" encoding="UTF-8"?>
<svg width="48px" height="48px" viewBox="0 0 48 48" version="1.1" xmlns="http://www.w3.org/2000/svg" xmlns:xlink="http://www.w3.org/1999/xlink">
    <!-- Generator: Sketch 63.1 (92452) - https://sketch.com -->
    <title>IconPokedex</title>
    <desc>Created with Sketch.</desc>
    <g id="IconPokedex" stroke="none" stroke-width="1" fill="none" fill-rule="evenodd">
        <path d="M37,18 L37,39 C37,40.6568542 35.6568542,42 34,42 L14,42 C12.3431458,42 11,40.6568542 11,39 L11,20 L11,20 L22,20 C25,20 24,18 27,18 L27,18 L37,18 Z M32,24 L16,24 C15.4477153,24 15,24.4477153 15,25 L15,25 L15,31 C15,31.5522847 15.4477153,32 16,32 L16,32 L32,32 C32.5522847,32 33,31.5522847 33,31 L33,31 L33,25 C33,24.4477153 32.5522847,24 32,24 L32,24 Z M34,6 C35.6568542,6 37,7.34314575 37,9 L37,16 L37,16 L27,16 C24,16 25,18 22,18 L22,18 L11,18 L11,9 C11,7.34314575 12.3431458,6 14,6 L34,6 Z M17,10 C15.8954305,10 15,10.8954305 15,12 C15,13.1045695 15.8954305,14 17,14 C18.1045695,14 19,13.1045695 19,12 C19,10.8954305 18.1045695,10 17,10 Z" id="Combined-Shape" fill="#FFFFFF"></path>
        <circle id="Oval" fill-opacity="0.3" fill="#FFFFFF" cx="17" cy="12" r="2"></circle>
        <rect id="Rectangle" fill-opacity="0.3" fill="#FFFFFF" x="15" y="24" width="18" height="8" rx="1"></rect>
    </g>
</svg>