<?xml version="1.0" encoding="UTF-8"?>
<svg width="48px" height="48px" viewBox="0 0 48 48" version="1.1" xmlns="http://www.w3.org/2000/svg" xmlns:xlink="http://www.w3.org/1999/xlink">
    <!-- Generator: Sketch 63.1 (92452) - https://sketch.com -->
    <title>IconQuestion</title>
    <desc>Created with Sketch.</desc>
    <g id="IconQuestion" stroke="none" stroke-width="1" fill="none" fill-rule="evenodd">
        <g id="question" transform="translate(9.000000, 8.000000)" fill="#FFFFFF" fill-rule="nonzero">
            <path d="M16,0 C24.836556,0 32,7.163444 32,16 C32,24.836556 24.836556,32 16,32 C7.163444,32 0,24.836556 0,16 C0,7.163444 7.163444,0 16,0 Z M16,24 C15.1163444,24 14.4,24.7163444 14.4,25.6 C14.4,26.4836556 15.1163444,27.2 16,27.2 C16.8836556,27.2 17.6,26.4836556 17.6,25.6 C17.6,24.7163444 16.8836556,24 16,24 Z M9.6,12.72 L9.608,12.9552 C9.68057538,13.7702716 10.3609191,14.3965758 11.1792,14.4016 C12.0624,14.4016 12.7792,13.6864 12.7824,12.8048 C12.8204526,11.0622706 14.2434907,9.66927369 15.9864353,9.66840374 C17.72938,9.66753379 19.1538079,11.0591094 19.1936,12.8016 C19.1936,14.5648 17.7568,16.0016 15.9888,16.0016 L16,16.0016 C15.124404,16.001526 14.4113827,16.705278 14.4,17.5808 L14.4,20.8032 C14.4,21.6886229 15.1177771,22.4064 16.0032,22.4064 C16.8886229,22.4064 17.6064,21.6886229 17.6064,20.8032 L17.6064,19.552 C17.6064,19.2048 17.8384,18.9136 18.1664,18.7968 C21.2429132,17.698384 22.9938639,14.4547064 22.224,11.28 C21.6630004,8.94304036 19.8325824,7.12190758 17.4928,6.5728 C13.3136,5.6224 9.6272,8.7136 9.6,12.72 Z" id="Combined-Shape"></path>
            <circle id="Oval" fill-opacity="0.3" cx="16.6153846" cy="26.4615385" r="1.84615385"></circle>
            <path d="M21.9800233,11.0320907 C21.4408046,8.69610662 19.6814532,6.87573405 17.4325135,6.32685568 C13.4155722,5.37685241 9.8722978,8.46676203 9.84615385,12.4714896 L9.85384324,12.7065914 C9.92360086,13.5213228 10.57753,14.1473655 11.3640409,14.1523877 C12.2129504,14.1523877 12.9019205,13.4374862 12.9049962,12.5562542 C12.9415714,10.8144522 14.3093596,9.42203679 15.9846339,9.42116721 C17.6599082,9.42029762 19.0290323,10.8112923 19.0672794,12.5530556 C19.0672794,14.3155195 17.6862636,15.7517198 15.9869068,15.7517198 L15.9976719,15.7517198 C15.1560712,15.7516458 14.4707332,16.455104 14.4597924,17.3302605 L14.4597924,20.5513154 C14.4597924,21.4363687 15.1497016,22.1538462 16.0007477,22.1538462 C16.8517938,22.1538462 17.541703,21.4363687 17.541703,20.5513154 L17.541703,19.3006377 C17.541703,18.9535826 17.7646955,18.6625042 18.0799608,18.5457529 C21.0370275,17.4477954 22.7199969,14.2054719 21.9800233,11.0320907" id="Path" fill-opacity="0.3"></path>
        </g>
    </g>
</svg>