<?xml version="1.0" encoding="UTF-8"?>
<svg width="48px" height="48px" viewBox="0 0 48 48" version="1.1" xmlns="http://www.w3.org/2000/svg" xmlns:xlink="http://www.w3.org/1999/xlink">
    <!-- Generator: Sketch 63.1 (92452) - https://sketch.com -->
    <title>IconProjects</title>
    <desc>Created with Sketch.</desc>
    <g id="IconProjects" stroke="none" stroke-width="1" fill="none" fill-rule="evenodd">
        <g id="Group" transform="translate(10.000000, 6.000000)">
            <path d="M23,0 C24.6568542,-3.04359188e-16 26,1.34314575 26,3 L26,33 C26,34.6568542 24.6568542,36 23,36 L3,36 C1.34314575,36 2.02906125e-16,34.6568542 0,33 L0,8 L8,0 L23,0 Z M7,28 L5,28 C4.44771525,28 4,28.4477153 4,29 L4,29 L4,31 C4,31.5522847 4.44771525,32 5,32 L5,32 L7,32 C7.55228475,32 8,31.5522847 8,31 L8,31 L8,29 C8,28.4477153 7.55228475,28 7,28 L7,28 Z M7,20 L5,20 C4.44771525,20 4,20.4477153 4,21 L4,21 L4,23 C4,23.5522847 4.44771525,24 5,24 L5,24 L7,24 C7.55228475,24 8,23.5522847 8,23 L8,23 L8,21 C8,20.4477153 7.55228475,20 7,20 L7,20 Z M7,12 L5,12 C4.44771525,12 4,12.4477153 4,13 L4,13 L4,15 C4,15.5522847 4.44771525,16 5,16 L5,16 L7,16 C7.55228475,16 8,15.5522847 8,15 L8,15 L8,13 C8,12.4477153 7.55228475,12 7,12 L7,12 Z" id="Combined-Shape" fill="#FFFFFF"></path>
            <path d="M8,0 L8,7 C8,7.55228475 7.55228475,8 7,8 L0,8 L0,8 L6.34767071,1.65232929 L8,0 Z" id="Rectangle" fill="#B3B6CF"></path>
            <circle id="Oval" fill="#D2585C" cx="22" cy="24" r="7"></circle>
            <g id="done-24px" transform="translate(17.000000, 20.000000)">
                <polygon id="Path" points="0 0 8 0 8 8 0 8"></polygon>
                <polygon id="Path" fill="#FFFFFF" fill-rule="nonzero" points="4.4 4.5 3.2 3.25 2 4.5 4.4 7 9 2 7.8 0.75"></polygon>
            </g>
            <rect id="Rectangle" fill-opacity="0.3" fill="#FFFFFF" x="4" y="12" width="4" height="4" rx="1"></rect>
            <rect id="Rectangle-Copy" fill-opacity="0.3" fill="#FFFFFF" x="4" y="20" width="4" height="4" rx="1"></rect>
            <rect id="Rectangle-Copy-2" fill-opacity="0.3" fill="#FFFFFF" x="4" y="28" width="4" height="4" rx="1"></rect>
        </g>
    </g>
</svg>