<?xml version="1.0" encoding="UTF-8"?>
<svg width="14px" height="14px" viewBox="0 0 12 12" version="1.1" xmlns="http://www.w3.org/2000/svg" xmlns:xlink="http://www.w3.org/1999/xlink">
    <title>IconClear</title>
    <g id="IconClear" stroke="none" stroke-width="1" fill="none" fill-rule="evenodd">
        <path d="M6,0 C9.3137085,0 12,2.6862915 12,6 C12,9.3137085 9.3137085,12 6,12 C2.6862915,12 0,9.3137085 0,6 C0,2.6862915 2.6862915,0 6,0 Z M8.41877808,3.02722191 C8.14840731,2.95477628 7.85992513,3.03207485 7.662,3.23 L7.662,3.23 L6,4.892 L4.33733333,3.23 C4.02834015,2.94284872 3.54753163,2.95165384 3.2492594,3.24992607 C2.95098717,3.5481983 2.94218205,4.02900682 3.22933333,4.338 L3.22933333,4.338 L4.89133333,6 L3.22933333,7.662 C2.92321346,7.96816226 2.92321346,8.4645044 3.22933333,8.77066667 C3.37598309,8.91812344 3.57536783,9.00103196 3.78333333,9.00103196 C3.99129884,9.00103196 4.19068357,8.91812344 4.33733333,8.77066667 L4.33733333,8.77066667 L6,7.108 L7.662,8.77066667 C7.96814985,9.07663242 8.46436758,9.07648318 8.77033333,8.77033333 C9.07629908,8.46418349 9.07614985,7.96796575 8.77,7.662 L8.77,7.662 L7.108,6 L8.77,4.338 C8.96792515,4.14007487 9.04522372,3.85159269 8.97277809,3.58122192 C8.90033247,3.31085115 8.68914885,3.09966753 8.41877808,3.02722191 Z" id="Combined-Shape" fill="currentColor" fill-rule="nonzero"></path>
    </g>
</svg>