<?xml version="1.0" encoding="UTF-8"?>
<svg width="48px" height="48px" viewBox="0 0 48 48" version="1.1" xmlns="http://www.w3.org/2000/svg" xmlns:xlink="http://www.w3.org/1999/xlink">
    <!-- Generator: Sketch 63.1 (92452) - https://sketch.com -->
    <title>IconAdd</title>
    <desc>Created with Sketch.</desc>
    <g id="IconAdd" stroke="none" stroke-width="1" fill="none" fill-rule="evenodd">
        <path d="M25.5,12 C25.7761424,12 26,12.2238576 26,12.5 L26,22 L35.5,22 C35.7761424,22 36,22.2238576 36,22.5 L36,25.5 C36,25.7761424 35.7761424,26 35.5,26 L26,26 L26,35.5 C26,35.7761424 25.7761424,36 25.5,36 L22.5,36 C22.2238576,36 22,35.7761424 22,35.5 L22,26 L12.5,26 C12.2238576,26 12,25.7761424 12,25.5 L12,22.5 C12,22.2238576 12.2238576,22 12.5,22 L22,22 L22,12.5 C22,12.2238576 22.2238576,12 22.5,12 L25.5,12 Z" id="Combined-Shape" fill="#FFFFFF"></path>
    </g>
</svg>