<?xml version="1.0" encoding="UTF-8"?>
<svg width="48px" height="48px" viewBox="0 0 48 48" version="1.1" xmlns="http://www.w3.org/2000/svg" xmlns:xlink="http://www.w3.org/1999/xlink">
    <!-- Generator: Sketch 63.1 (92452) - https://sketch.com -->
    <title>IconPokeball</title>
    <desc>Created with Sketch.</desc>
    <g id="IconPokeball" stroke="none" stroke-width="1" fill="none" fill-rule="evenodd">
        <circle id="Oval" fill-opacity="0.7" fill="#FFFFFF" cx="24" cy="24" r="4"></circle>
        <path d="M45.9102536,26.0006699 C44.899481,37.21335 35.4758566,46 24,46 C12.5241434,46 3.10051895,37.21335 2.08974641,26.0006699 L16.2521271,26.0003581 C17.1403373,29.4506308 20.2724501,32 24,32 C27.7275499,32 30.8596627,29.4506308 31.7478729,26.0003581 L45.9102536,26.0006699 Z" id="Path" fill="#FFFFFF"></path>
        <path d="M24,3 C18.5472074,3 13.5797646,5.07817104 9.84666808,8.48583843 C6.33685374,11.6896881 3.91765483,16.0685257 3.21249974,21.0003553 L15.5121864,21.0006277 C16.0936756,19.3551471 17.1397952,17.9290327 18.4934802,16.8806531 C20.0155524,15.7018638 21.9257787,15 24,15 C26.0742213,15 27.9844476,15.7018638 29.5065198,16.8806531 C30.8602048,17.9290327 31.9063244,19.3551471 32.4878136,21.0006277 L44.7875003,21.0003553 C44.0823452,16.0685257 41.6631463,11.6896881 38.1533319,8.48583843 C34.4202354,5.07817104 29.4527926,3 24,3 Z" id="Path" stroke="#FFFFFF" stroke-width="2" fill="#FFFFFF"></path>
    </g>
</svg>